#!OML:ASF H:\Terrain\Patient Classification 1\Animal1\Tuesday\Animal1.ASF
:FULLY-SPECIFIED
:DEGREES
2774
root 7.43393 16.9061 2.5109 -172.652 -130.875 -177.722
lowerback -9.84175 -0.110565 -1.33057
upperback -1.35169 -0.0100783 -0.402716
thorax 4.11185 -0.0323744 0.328794
lowerneck 4.49557 6.3703 -4.78787
upperneck 8.79672 7.82542 7.95085
head 1.4884 3.84724 3.36116
rclavicle 1.66967e-014 2.02512e-015
rhumerus -32.629 -1.60294 -86.0843
rradius 11.6394
rwrist -13.2606
rhand 0.865887 9.45508
rfingers 7.12502
rthumb 26.4195 -18.7239
lclavicle 1.66967e-014 2.02512e-015
lhumerus -37.9379 28.4406 70.2531
lradius 9.53018
lwrist -44.9688
lhand 37.8772 45.8889
lfingers 7.12502
lthumb 60.6133 59.0088
rfemur -17.8718 21.4069 21.9999
rtibia 21.2784
rfoot -44.8662 -44.774
rtoes 47.6497
lfemur -11.7934 -29.0705 -21.5822
ltibia 5.56098
lfoot -38.8118 44.6525
ltoes 41.8267
2775
root 7.44336 16.9156 2.4982 -172.544 -130.958 -177.644
lowerback -9.52966 -0.156419 -1.43066
upperback -1.25137 -0.065155 -0.35205
thorax 4.04354 -0.060601 0.430853
lowerneck 4.62606 6.41034 -4.89981
upperneck 8.77566 7.86114 8.11499
head 1.44512 3.86047 3.43019
rclavicle 7.99332e-015 3.77691e-015
rhumerus -32.4636 -0.785268 -86.636
rradius 11.6306
rwrist -15.0044
rhand -1.20015 10.3368
rfingers 7.12502
rthumb 24.4404 -18.1241
lclavicle 7.99332e-015 3.77691e-015
lhumerus -38.0843 28.4305 70.23
lradius 9.66415
lwrist -44.6217
lhand 38.1721 45.8406
lfingers 7.12502
lthumb 60.8634 58.6814
rfemur -18.0515 21.6362 21.8613
rtibia 21.3616
rfoot -46.6214 -43.9757
rtoes 48.479
lfemur -11.6743 -29.7304 -21.3935
ltibia 4.70947
lfoot -38.9856 45.0777
ltoes 43.2015
2776
root 7.45283 16.9259 2.4861 -172.121 -130.917 -177.841
lowerback -9.32676 -0.14928 -1.40374
upperback -1.03351 -0.0603461 -0.266306
thorax 4.15719 -0.0586822 0.505366
lowerneck 4.08407 6.38781 -4.98912
upperneck 8.96041 7.82853 8.34749
head 1.58948 3.85693 3.55615
rclavicle 2.99202e-014 6.4605e-015
rhumerus -31.9277 -0.114691 -87.0809
rradius 11.4149
rwrist -16.3798
rhand -2.69658 10.8351
rfingers 7.12502
rthumb 23.0051 -17.812
lclavicle 2.99202e-014 6.4605e-015
lhumerus -37.7479 28.5299 70.3921
lradius 9.65739
lwrist -44.2032
lhand 38.1473 45.9003
lfingers 7.12502
lthumb 60.8424 58.7648
rfemur -18.4094 22.0359 21.8527
rtibia 21.4441
rfoot -47.199 -44.0592
rtoes 48.875
lfemur -11.6138 -30.249 -20.997
ltibia 3.79706
lfoot -39.156 45.5064
ltoes 44.1496
2777
root 7.46095 16.9289 2.47928 -171.634 -130.832 -177.992
lowerback -9.30554 -0.108128 -1.35996
upperback -0.86129 -0.0100506 -0.192289
thorax 4.32375 -0.0345325 0.563934
lowerneck 3.87871 6.32522 -4.82125
upperneck 8.88428 7.76289 8.30052
head 1.61356 3.83266 3.5171
rclavicle -2.84231e-014 -9.29318e-015
rhumerus -31.5489 -0.362849 -86.8987
rradius 11.2226
rwrist -16.2529
rhand -1.93663 11.7468
rfingers 7.12502
rthumb 23.7342 -16.8076
lclavicle -2.84231e-014 -9.29318e-015
lhumerus -37.4311 28.5812 70.5712
lradius 9.65694
lwrist -43.978
lhand 38.482 46.2196
lfingers 7.12502
lthumb 61.1253 58.7617
rfemur -18.891 22.435 21.7311
rtibia 21.4538
rfoot -47.7463 -44.1891
rtoes 49.3039
lfemur -11.743 -30.7326 -20.6032
ltibia 3.06324
lfoot -39.0652 46.0848
ltoes 44.6897
2778
root 7.46799 16.9339 2.47808 -171.326 -130.865 -178.094
lowerback -9.21751 -0.145567 -1.20174
upperback -0.799614 -0.0793277 -0.120324
thorax 4.34005 -0.0664952 0.540769
lowerneck 4.25159 6.3705 -4.81381
upperneck 8.67858 7.81923 8.28841
head 1.47762 3.85129 3.48727
rclavicle -2.81715e-014 -1.19271e-015
rhumerus -31.5339 -1.52669 -86.18
rradius 11.1684
rwrist -14.7218
rhand 0.117709 12.4403
rfingers 7.12502
rthumb 25.7031 -15.8442
lclavicle -2.81715e-014 -1.19271e-015
lhumerus -37.6367 28.6707 70.4942
lradius 9.71549
lwrist -43.7117
lhand 38.5704 46.3518
lfingers 7.12502
lthumb 61.1999 58.8075
rfemur -19.0085 22.7219 21.6576
rtibia 21.3269
rfoot -49.2622 -43.2062
rtoes 50.5202
lfemur -12.2851 -31.3213 -20.2317
ltibia 3.34857
lfoot -39.0625 46.5104
ltoes 44.494
2779
root 7.47804 16.9285 2.48093 -171.233 -131.007 -178.026
lowerback -8.97369 -0.224255 -1.06982
upperback -0.641075 -0.197461 -0.122693
thorax 4.37051 -0.122368 0.449356
lowerneck 4.09513 6.40616 -4.86341
upperneck 8.62897 7.87092 8.36746
head 1.47986 3.8798 3.52722
rclavicle 2.33758e-014 8.15017e-015
rhumerus -31.3581 -1.98588 -85.9689
rradius 11.2693
rwrist -14.4598
rhand 0.0124491 12.4606
rfingers 7.12502
rthumb 25.6023 -15.8385
lclavicle 2.33758e-014 8.15017e-015
lhumerus -37.465 28.8499 70.556
lradius 9.63485
lwrist -43.408
lhand 38.5969 46.3062
lfingers 7.12502
lthumb 61.2222 58.7361
rfemur -19.1801 23.3522 21.3745
rtibia 21.2671
rfoot -50.7499 -42.9901
rtoes 51.1194
lfemur -12.4931 -32.0385 -20.0363
ltibia 3.17485
lfoot -39.5075 46.7057
ltoes 45.2771
2780
root 7.48612 16.9226 2.48067 -171.089 -131.066 -177.859
lowerback -8.92012 -0.257196 -1.09226
upperback -0.752572 -0.24166 -0.119734
thorax 4.22525 -0.144024 0.459922
lowerneck 5.06026 6.4626 -4.86109
upperneck 8.21364 7.92634 8.40594
head 1.17093 3.88379 3.48426
rclavicle -7.75881e-015 -5.06901e-015
rhumerus -31.8253 -1.32897 -86.2478
rradius 11.5121
rwrist -15.7283
rhand -0.61708 12.5272
rfingers 7.12502
rthumb 24.9992 -15.8572
lclavicle -7.75881e-015 -5.06901e-015
lhumerus -37.8303 28.7823 70.4337
lradius 9.62492
lwrist -43.0626
lhand 39.1562 46.3819
lfingers 7.12502
lthumb 61.6921 58.254
rfemur -19.6043 23.9332 20.9649
rtibia 21.2159
rfoot -51.3347 -43.8912
rtoes 50.6072
lfemur -12.746 -32.6876 -19.857
ltibia 2.88773
lfoot -41.1798 46.2272
ltoes 47.8646
2781
root 7.48831 16.9353 2.47911 -170.799 -130.98 -177.854
lowerback -8.96628 -0.242278 -1.10299
upperback -0.733319 -0.222219 -0.0669659
thorax 4.27105 -0.135266 0.52295
lowerneck 5.51983 6.49077 -4.81305
upperneck 7.91058 7.96536 8.37048
head 0.993976 3.8919 3.43438
rclavicle 1.02623e-014 -2.98177e-016
rhumerus -31.9086 -1.48958 -86.059
rradius 11.4966
rwrist -15.4402
rhand 0.115535 13.1772
rfingers 7.12502
rthumb 25.701 -15.1076
lclavicle 1.02623e-014 -2.98177e-016
lhumerus -38.0181 28.7611 70.3801
lradius 9.71937
lwrist -42.3279
lhand 39.37 46.4341
lfingers 7.12502
lthumb 61.8709 58.0878
rfemur -19.7593 23.9213 20.8685
rtibia 20.9223
rfoot -51.041 -44.7483
rtoes 49.731
lfemur -13.9173 -33.1588 -19.4747
ltibia 4.2954
lfoot -43.0667 45.269
ltoes 49.6411
2782
root 7.49092 16.9327 2.47842 -170.473 -130.844 -178.006
lowerback -8.94374 -0.15912 -0.938134
upperback -0.615094 -0.124748 -0.104154
thorax 4.37938 -0.0840064 0.403692
lowerneck 5.56772 6.4418 -4.35866
upperneck 7.79768 7.92923 8.17701
head 0.978853 3.88193 3.28182
rclavicle 9.83487e-014 6.85807e-015
rhumerus -31.7502 -2.10997 -85.9181
rradius 11.3963
rwrist -14.6749
rhand -0.601837 13.2286
rfingers 7.12502
rthumb 25.0138 -15.1537
lclavicle 9.83487e-014 6.85807e-015
lhumerus -37.9472 28.608 70.289
lradius 9.84778
lwrist -41.3886
lhand 39.3262 46.4037
lfingers 7.12502
lthumb 61.8343 58.1023
rfemur -19.8757 24.5251 20.7308
rtibia 20.5657
rfoot -52.3406 -44.4582
rtoes 50.5461
lfemur -14.9157 -33.5682 -19.0711
ltibia 5.60045
lfoot -44.4733 44.148
ltoes 51.2155
2783
root 7.49519 16.911 2.47867 -170.248 -130.753 -178.151
lowerback -8.85057 -0.0867609 -0.696487
upperback -0.537733 -0.0484848 -0.187255
thorax 4.4064 -0.0407366 0.191097
lowerneck 5.79263 6.40562 -3.99738
upperneck 7.65749 7.8955 8.14445
head 0.913471 3.86733 3.19353
rclavicle -2.43449e-014 4.67144e-015
rhumerus -31.7471 -2.66002 -85.884
rradius 11.3648
rwrist -14.3451
rhand -1.71727 13.1199
rfingers 7.12502
rthumb 23.9445 -15.407
lclavicle -2.43449e-014 4.67144e-015
lhumerus -37.974 28.4266 70.1278
lradius 9.94001
lwrist -40.5508
lhand 39.1723 46.2811
lfingers 7.12502
lthumb 61.7056 58.1368
rfemur -20.104 25.8575 20.3617
rtibia 20.2985
rfoot -54.4016 -43.3327
rtoes 52.587
lfemur -15.4763 -34.0364 -18.7897
ltibia 6.33513
lfoot -44.8116 44.052
ltoes 51.564
2784
root 7.49695 16.9022 2.48416 -170.294 -130.653 -178.059
lowerback -8.71813 -0.188529 -0.650513
upperback -0.459014 -0.189514 -0.162539
thorax 4.4153 -0.109673 0.17351
lowerneck 6.05616 6.54921 -4.13687
upperneck 7.50915 8.07849 8.19646
head 0.800809 3.94763 3.21626
rclavicle 5.62436e-014 -2.08724e-015
rhumerus -31.7857 -2.5604 -85.8135
rradius 11.352
rwrist -14.194
rhand -1.35929 13.8354
rfingers 7.12502
rthumb 24.2878 -14.6461
lclavicle 5.62436e-014 -2.08724e-015
lhumerus -38.3071 28.7377 69.8581
lradius 10.1175
lwrist -39.9106
lhand 38.5833 46.055
lfingers 7.12502
lthumb 61.2108 58.4981
rfemur -20.1152 26.8308 19.9637
rtibia 19.9616
rfoot -55.3444 -42.6984
rtoes 53.7046
lfemur -16.0101 -34.5287 -18.748
ltibia 7.29536
lfoot -44.2027 45.1184
ltoes 50.28
2785
root 7.49602 16.8982 2.4919 -170.439 -130.474 -177.79
lowerback -8.64849 -0.311895 -0.793064
upperback -0.330673 -0.342223 -0.0824724
thorax 4.51251 -0.189037 0.317822
lowerneck 6.04525 6.71577 -4.37673
upperneck 7.46111 8.29709 8.10371
head 0.767129 4.04983 3.2204
rclavicle -1.65737e-014 1.49089e-015
rhumerus -31.7058 -1.75842 -85.9102
rradius 11.4745
rwrist -14.6792
rhand -1.41437 13.9242
rfingers 7.12502
rthumb 24.235 -14.5643
lclavicle -1.65737e-014 1.49089e-015
lhumerus -38.1584 28.579 70.3707
lradius 10.2776
lwrist -38.7516
lhand 38.1321 46.0189
lfingers 7.12502
lthumb 60.8296 58.8979
rfemur -20.1278 27.5734 19.5045
rtibia 19.6363
rfoot -55.7935 -42.7381
rtoes 54.1209
lfemur -16.5035 -34.9735 -18.8549
ltibia 8.20689
lfoot -45.2933 44.8175
ltoes 50.6276
2786
root 7.49393 16.8845 2.50158 -170.585 -130.269 -177.468
lowerback -8.6518 -0.259098 -0.89674
upperback -0.225382 -0.258223 -0.12608
thorax 4.62341 -0.149595 0.341017
lowerneck 6.0798 6.75008 -4.53567
upperneck 7.32058 8.33987 8.2001
head 0.701592 4.06632 3.27492
rclavicle 4.4006e-014 1.64991e-014
rhumerus -31.6405 -1.38529 -86.0157
rradius 11.6659
rwrist -15.2557
rhand -1.87237 12.9413
rfingers 7.12502
rthumb 23.7958 -15.6051
lclavicle 4.4006e-014 1.64991e-014
lhumerus -37.9483 28.5921 70.4795
lradius 10.2205
lwrist -38.7439
lhand 38.1532 45.7468
lfingers 7.12502
lthumb 60.8474 58.6057
rfemur -20.2446 28.3671 18.9857
rtibia 19.3878
rfoot -55.7186 -43.5276
rtoes 54.062
lfemur -16.8921 -35.4086 -19.0203
ltibia 8.88408
lfoot -47.9381 42.9
ltoes 52.5514
2787
root 7.49286 16.8761 2.51363 -170.591 -130.107 -177.392
lowerback -8.53993 -0.21831 -0.850059
upperback -0.203043 -0.208708 -0.138138
thorax 4.58301 -0.123735 0.30874
lowerneck 6.24803 6.79867 -4.68785
upperneck 7.20702 8.3892 8.43326
head 0.614832 4.08349 3.36996
rclavicle 4.14963e-014 -1.59028e-015
rhumerus -31.6708 -1.16564 -86.0943
rradius 11.7623
rwrist -15.4996
rhand -2.05359 12.1683
rfingers 7.12502
rthumb 23.622 -16.4006
lclavicle 4.14963e-014 -1.59028e-015
lhumerus -37.8098 28.1236 70.7071
lradius 10.2485
lwrist -38.4967
lhand 38.5297 45.5198
lfingers 7.12502
lthumb 61.1655 58.0154
rfemur -20.1984 29.0184 18.7271
rtibia 19.0902
rfoot -56.0941 -43.7045
rtoes 54.121
lfemur -17.2327 -35.867 -19.0753
ltibia 9.63437
lfoot -49.1608 42.185
ltoes 53.1285
2788
root 7.49245 16.879 2.51924 -170.14 -129.976 -177.886
lowerback -8.34628 -0.20083 -0.52696
upperback -0.212753 -0.224293 -0.00573856
thorax 4.46355 -0.125386 0.263139
lowerneck 6.30735 6.85682 -4.69756
upperneck 7.24468 8.45802 8.49777
head 0.608495 4.11603 3.38981
rclavicle -6.21202e-014 4.77083e-015
rhumerus -31.6897 -1.15388 -86.0223
rradius 11.762
rwrist -15.3208
rhand -2.82648 11.9648
rfingers 7.12502
rthumb 22.8805 -16.6978
lclavicle -6.21202e-014 4.77083e-015
lhumerus -37.8484 28.134 70.7216
lradius 10.3637
lwrist -38.8014
lhand 39.0295 45.4998
lfingers 7.12502
lthumb 61.5859 57.4999
rfemur -20.1292 29.4471 18.9363
rtibia 18.7747
rfoot -56.8101 -43.1258
rtoes 54.5454
lfemur -17.6251 -36.2728 -18.6607
ltibia 10.3672
lfoot -49.6448 42.4417
ltoes 53.24
